<svg width="36" height="36" viewBox="0 0 36 36" fill="none" xmlns="http://www.w3.org/2000/svg">
<path d="M14.0072 23.9857C18.7418 23.7227 22.5 19.8004 22.5 15C22.5 10.0294 18.4706 6 13.5 6C8.52944 6 4.5 10.0294 4.5 15C4.5 16.7711 5.01141 18.4225 5.89483 19.8149L5.25879 21.7231L5.25778 21.7259C5.01416 22.4567 4.8923 22.8223 4.97908 23.0656C5.05469 23.2777 5.22253 23.4448 5.43457 23.5204C5.67708 23.6069 6.04012 23.4859 6.76604 23.2439L6.77637 23.2408L8.68506 22.6047C10.0775 23.4882 11.729 23.9997 13.5001 23.9997C13.6703 23.9997 13.8394 23.995 14.0072 23.9857ZM14.0072 23.9857C14.0073 23.986 14.0071 23.9853 14.0072 23.9857ZM14.0072 23.9857C15.2386 27.4888 18.5761 30.0002 22.5002 30.0002C24.2713 30.0002 25.9225 29.4882 27.3148 28.6047L29.223 29.2408L29.2268 29.2415C29.9575 29.4851 30.3237 29.6072 30.5671 29.5204C30.7791 29.4448 30.9448 29.2776 31.0204 29.0656C31.1073 28.8219 30.9858 28.4559 30.7415 27.7231L30.1055 25.8149L30.3185 25.4619C31.0707 24.1469 31.4992 22.6235 31.4992 21C31.4992 16.0295 27.4705 12 22.5 12L22.1631 12.0062L21.9932 12.0145" stroke="white" stroke-width="2.5" stroke-linecap="round" stroke-linejoin="round"/>
</svg>
