<svg width="36" height="36" viewBox="0 0 36 36" fill="none" xmlns="http://www.w3.org/2000/svg">
<path d="M4.5 18H12M4.5 18C4.5 25.4558 10.5442 31.5 18 31.5M4.5 18C4.5 10.5442 10.5442 4.5 18 4.5M12 18H24M12 18C12 25.4558 14.6863 31.5 18 31.5M12 18C12 10.5442 14.6863 4.5 18 4.5M24 18H31.5M24 18C24 10.5442 21.3137 4.5 18 4.5M24 18C24 25.4558 21.3137 31.5 18 31.5M31.5 18C31.5 10.5442 25.4558 4.5 18 4.5M31.5 18C31.5 25.4558 25.4558 31.5 18 31.5" stroke="white" stroke-width="2.5" stroke-linecap="round" stroke-linejoin="round"/>
</svg>
