<svg width="35" height="36" viewBox="0 0 35 36" fill="none" xmlns="http://www.w3.org/2000/svg">
<path d="M28.8 25.5002V17.1783C28.8 16.3768 28.7993 15.9759 28.7058 15.6029C28.6229 15.2724 28.4868 14.9596 28.3026 14.677C28.0947 14.358 27.8058 14.0935 27.2267 13.5657L20.3147 7.26574C19.2396 6.28581 18.702 5.7961 18.097 5.60973C17.564 5.44552 16.9958 5.44552 16.4627 5.60973C15.8582 5.79595 15.3214 6.28521 14.2479 7.26365L7.33359 13.5657C6.75452 14.0935 6.46566 14.358 6.25781 14.677C6.07362 14.9596 5.93647 15.2724 5.85356 15.6029C5.76 15.9759 5.76 16.3768 5.76 17.1783V25.5002C5.76 26.8981 5.76 27.5967 5.97923 28.148C6.27153 28.8831 6.83182 29.4678 7.5375 29.7723C8.06676 30.0007 8.73772 30.0007 10.0796 30.0007C11.4215 30.0007 12.0932 30.0007 12.6225 29.7723C13.3282 29.4678 13.8883 28.8832 14.1806 28.1482C14.3999 27.5969 14.4 26.8979 14.4 25.5001V24.0001C14.4 22.3433 15.6894 21.0001 17.28 21.0001C18.8706 21.0001 20.16 22.3433 20.16 24.0001V25.5001C20.16 26.8979 20.16 27.5968 20.3792 28.1482C20.6715 28.8832 21.2318 29.4678 21.9375 29.7723C22.4668 30.0007 23.1377 30.0007 24.4796 30.0007C25.8215 30.0007 26.4932 30.0007 27.0225 29.7723C27.7282 29.4678 28.2883 28.8831 28.5806 28.148C28.7999 27.5967 28.8 26.8981 28.8 25.5002Z" stroke="white" stroke-width="2.88" stroke-linecap="round" stroke-linejoin="round"/>
</svg>
