<svg width="20" height="20" viewBox="0 0 20 20" fill="none" xmlns="http://www.w3.org/2000/svg">
<path fill-rule="evenodd" clip-rule="evenodd" d="M4.16667 1.66675H15.8333C17.2141 1.66675 18.3333 2.78604 18.3333 4.16675V15.8334C18.3333 17.2141 17.2141 18.3334 15.8333 18.3334H4.16667C2.78596 18.3334 1.66667 17.2141 1.66667 15.8334V4.16675C1.66667 2.78604 2.78596 1.66675 4.16667 1.66675ZM4.16667 16.6667H15.8333C16.1558 16.6643 16.4479 16.4761 16.5833 16.1834L7.62501 9.47508L3.33334 14.4751V15.8334C3.33334 16.2937 3.70643 16.6667 4.16667 16.6667ZM16.6667 14.1667L11.6667 10.3834L13.4333 8.61675L16.6667 11.2334V14.1667ZM13.85 6.85008L16.6667 9.10008V4.16675C16.6667 3.70651 16.2936 3.33341 15.8333 3.33341H4.16667C3.70643 3.33341 3.33334 3.70651 3.33334 4.16675V11.9167L6.86667 7.79175C7.15236 7.45771 7.64838 7.403 8.00001 7.66675L10.2417 9.40842L12.7417 6.90842C13.0425 6.60999 13.5195 6.58489 13.85 6.85008Z" fill="#BEB3B3"/>
</svg>
