<svg width="16" height="16" viewBox="0 0 16 16" fill="none" xmlns="http://www.w3.org/2000/svg">
<path d="M6.62642 8.8022L9.74181 5.68681M12.9287 3.78555L10.299 12.3321C10.0633 13.098 9.9454 13.4811 9.74214 13.6081C9.56584 13.7183 9.34755 13.7367 9.15553 13.657C8.93413 13.5652 8.75442 13.2064 8.39593 12.4894L6.73032 9.15818C6.67343 9.0444 6.64496 8.98775 6.60696 8.93845C6.57324 8.89471 6.53432 8.85529 6.49058 8.82157C6.4424 8.78444 6.3867 8.75659 6.278 8.70224L2.93909 7.03279C2.22211 6.6743 1.86359 6.49489 1.77172 6.27348C1.69204 6.08147 1.71021 5.86298 1.82037 5.68667C1.94739 5.48338 2.33051 5.36528 3.09667 5.12953L11.6432 2.49984C12.2455 2.3145 12.5468 2.22191 12.7503 2.2966C12.9275 2.36166 13.0672 2.50123 13.1322 2.67844C13.2069 2.88179 13.1142 3.18293 12.9291 3.78466L12.9287 3.78555Z" stroke="white" stroke-width="1.28571" stroke-linecap="round" stroke-linejoin="round"/>
</svg>
