<svg width="15" height="15" viewBox="0 0 15 15" fill="none" xmlns="http://www.w3.org/2000/svg">
<path d="M9.37497 6.24988L6.87497 8.74988L5.62497 7.49988M8.27878 2.16175L9.04188 2.81206C9.23413 2.97589 9.47284 3.07494 9.72464 3.09504L10.724 3.17468C11.3116 3.22157 11.7783 3.688 11.8252 4.27558L11.9047 5.27515C11.9248 5.52694 12.0242 5.76599 12.188 5.95825L12.838 6.72114C13.2204 7.16978 13.2204 7.82971 12.8381 8.27835L12.1881 9.04136C12.0242 9.23361 11.925 9.47275 11.9049 9.72455L11.8249 10.7239C11.778 11.3115 11.312 11.7782 10.7245 11.8251L9.7247 11.9049C9.47291 11.925 9.23397 12.0238 9.04172 12.1876L8.27878 12.838C7.83014 13.2203 7.1698 13.2204 6.72116 12.838L5.95822 12.1877C5.76597 12.0238 5.52703 11.9249 5.27524 11.9048L4.27548 11.8251C3.6879 11.7782 3.22191 11.3116 3.17502 10.7241L3.09506 9.72461C3.07497 9.47282 2.9757 9.23388 2.81186 9.04163L2.16184 8.27838C1.77951 7.82974 1.77933 7.17002 2.16166 6.72138L2.81227 5.95813C2.9761 5.76588 3.07442 5.52694 3.09452 5.27515L3.17447 4.2757C3.22136 3.68812 3.6887 3.22151 4.27628 3.17462L5.27493 3.09497C5.52672 3.07488 5.76578 2.97591 5.95803 2.81208L6.72123 2.16175C7.16987 1.77942 7.83014 1.77942 8.27878 2.16175Z" stroke="#7FAEFF" stroke-width="1.25" stroke-linecap="round" stroke-linejoin="round"/>
</svg>
