<svg width="7" height="5" viewBox="0 0 7 5" fill="none" xmlns="http://www.w3.org/2000/svg">
<path d="M3.68848 1.22168C3.63965 1.22168 3.58398 1.21191 3.52148 1.19238C3.45898 1.1709 3.42773 1.12695 3.42773 1.06055C3.42773 1.03516 3.44141 0.999023 3.46875 0.952148C3.49805 0.905273 3.52637 0.857422 3.55371 0.808594C3.58105 0.757812 3.59473 0.716797 3.59473 0.685547C3.59473 0.619141 3.54785 0.570312 3.4541 0.539062C3.36035 0.509766 3.20312 0.495117 2.98242 0.495117C2.66797 0.506836 2.3877 0.530273 2.1416 0.56543C1.89551 0.600586 1.67188 0.646484 1.4707 0.703125C1.33984 0.740234 1.21094 0.780273 1.08398 0.823242C0.957031 0.864258 0.829102 0.908203 0.700195 0.955078C0.633789 0.980469 0.566406 1.00488 0.498047 1.02832C0.429688 1.05176 0.358398 1.07617 0.28418 1.10156L0.246094 1.11328C0.226562 1.11719 0.214844 1.11914 0.210938 1.11914C0.150391 1.11914 0.0996094 1.09375 0.0585938 1.04297C0.0195312 0.990234 0 0.933594 0 0.873047C0 0.798828 0.0859375 0.711914 0.257812 0.612305C0.431641 0.512695 0.666992 0.415039 0.963867 0.319336C1.25684 0.227539 1.58203 0.151367 1.93945 0.0908203C2.29688 0.0302734 2.65625 0 3.01758 0C3.43555 0 3.74219 0.0625 3.9375 0.1875C4.13281 0.3125 4.23242 0.470703 4.23633 0.662109C4.23633 0.710938 4.21289 0.780273 4.16602 0.870117C4.11914 0.959961 4.05469 1.04102 3.97266 1.11328C3.89062 1.18555 3.7959 1.22168 3.68848 1.22168ZM0.292969 4.44434C0.230469 4.44434 0.177734 4.42773 0.134766 4.39453C0.0917969 4.36328 0.0703125 4.31641 0.0703125 4.25391C0.0703125 4.23242 0.0722656 4.20898 0.0761719 4.18359C0.0820312 4.15625 0.0927734 4.12695 0.108398 4.0957C0.256836 3.78906 0.405273 3.49414 0.553711 3.21094C0.702148 2.92773 0.844727 2.66309 0.981445 2.41699C1.0498 2.29395 1.11621 2.17676 1.18066 2.06543C1.24707 1.95215 1.31055 1.84473 1.37109 1.74316C1.55078 1.44824 1.70801 1.21387 1.84277 1.04004C1.97754 0.864258 2.07031 0.776367 2.12109 0.776367C2.18945 0.776367 2.24023 0.795898 2.27344 0.834961C2.30664 0.874023 2.32324 0.919922 2.32324 0.972656C2.32324 1.01172 2.3125 1.05469 2.29102 1.10156L1.49707 2.73047C1.41113 2.91016 1.32129 3.09473 1.22754 3.28418C1.13379 3.47168 1.04883 3.63965 0.972656 3.78809C0.898438 3.93457 0.844727 4.03516 0.811523 4.08984C0.75293 4.20898 0.673828 4.29785 0.574219 4.35645C0.476562 4.41504 0.382812 4.44434 0.292969 4.44434ZM2.82129 4.30078C2.75488 4.30078 2.67578 4.28223 2.58398 4.24512C2.49219 4.20801 2.41113 4.14648 2.34082 4.06055C2.27246 3.97461 2.23828 3.85938 2.23828 3.71484C2.23828 3.59375 2.26562 3.44238 2.32031 3.26074C2.375 3.0791 2.46094 2.90039 2.57812 2.72461C2.69531 2.54492 2.84473 2.39551 3.02637 2.27637C3.20996 2.15723 3.42188 2.09766 3.66211 2.09766C3.74805 2.09766 3.82324 2.1084 3.8877 2.12988C3.95215 2.15137 4.00684 2.1748 4.05176 2.2002C4.07715 2.21582 4.10059 2.23242 4.12207 2.25C4.14551 2.26562 4.16699 2.2832 4.18652 2.30273L4.28906 2.25293C4.31836 2.23926 4.34863 2.22754 4.37988 2.21777C4.41309 2.20605 4.44141 2.2002 4.46484 2.2002C4.53906 2.2002 4.59961 2.2207 4.64648 2.26172C4.69336 2.30273 4.7168 2.34766 4.7168 2.39648C4.7168 2.41211 4.71582 2.42285 4.71387 2.42871C4.7002 2.4834 4.6748 2.55859 4.6377 2.6543C4.60254 2.75 4.56445 2.85645 4.52344 2.97363C4.48242 3.08691 4.44727 3.19629 4.41797 3.30176C4.39062 3.40723 4.37695 3.49414 4.37695 3.5625C4.37695 3.62109 4.38672 3.66992 4.40625 3.70898C4.42578 3.74609 4.45898 3.76465 4.50586 3.76465C4.5625 3.76465 4.63867 3.73242 4.73438 3.66797C4.83008 3.60156 4.92871 3.52344 5.03027 3.43359C5.08496 3.38477 5.1416 3.33301 5.2002 3.27832C5.25879 3.22168 5.31836 3.16211 5.37891 3.09961C5.41016 3.07422 5.44043 3.06152 5.46973 3.06152C5.50879 3.06152 5.54102 3.08105 5.56641 3.12012C5.59375 3.15723 5.60742 3.19922 5.60742 3.24609C5.60742 3.30078 5.58887 3.34668 5.55176 3.38379C5.47363 3.45605 5.39355 3.5332 5.31152 3.61523C5.22949 3.69727 5.11621 3.79785 4.97168 3.91699C4.84277 4.02246 4.70996 4.11328 4.57324 4.18945C4.43652 4.26367 4.31348 4.30078 4.2041 4.30078C4.06738 4.30078 3.96777 4.24805 3.90527 4.14258C3.84277 4.03516 3.81152 3.9209 3.81152 3.7998C3.81152 3.71191 3.82422 3.63379 3.84961 3.56543C3.76953 3.67285 3.6748 3.78418 3.56543 3.89941C3.45605 4.0127 3.33789 4.1084 3.21094 4.18652C3.08398 4.2627 2.9541 4.30078 2.82129 4.30078ZM3.05566 3.78516C3.11816 3.78516 3.19629 3.74512 3.29004 3.66504C3.38574 3.58496 3.47754 3.49121 3.56543 3.38379C3.66309 3.2666 3.74023 3.16016 3.79688 3.06445C3.85352 2.96875 3.88184 2.9043 3.88184 2.87109C3.88184 2.79688 3.83887 2.73828 3.75293 2.69531C3.66699 2.65039 3.58984 2.62793 3.52148 2.62793C3.40039 2.62793 3.28516 2.66699 3.17578 2.74512C3.06836 2.82324 2.98047 2.92383 2.91211 3.04688C2.84375 3.16797 2.80957 3.29395 2.80957 3.4248C2.80957 3.50098 2.82324 3.58008 2.85059 3.66211C2.87988 3.74414 2.94824 3.78516 3.05566 3.78516ZM6.21973 4.27441C6.12598 4.27441 6.0459 4.24023 5.97949 4.17188C5.91504 4.10156 5.88281 4.02051 5.88281 3.92871C5.88281 3.81152 5.9248 3.70801 6.00879 3.61816C6.09277 3.52832 6.19531 3.4834 6.31641 3.4834C6.41211 3.4834 6.48926 3.51562 6.54785 3.58008C6.6084 3.64453 6.63867 3.72461 6.63867 3.82031C6.63867 3.94336 6.59668 4.0498 6.5127 4.13965C6.42871 4.22949 6.33105 4.27441 6.21973 4.27441Z" fill="black"/>
</svg>
